<svg xmlns="http://www.w3.org/2000/svg" width="220" height="45" viewBox="0 0 220 45">
  <g fill="none" fill-rule="evenodd">
    <path fill="#1D1D1B" fill-rule="nonzero"
      d="M69.781407 25.15C68.3807675 27.6 66.5299223 28.8 62.9783006 28.8 58.7263591 28.8 55.7750114 25.85 55.7750114 20.7 55.7750114 15.55 58.5762905 12.7 63.4285062 12.7 66.7300137 12.7 68.7809502 14.2 69.8814527 16.7L66.0296939 18.55C65.6295112 17.1 64.9792143 16.2 63.2784376 16.2 61.0774326 16.2 59.7768387 17.95 59.7768387 20.8 59.7768387 23.65 60.9773869 25.3 63.3784833 25.3 64.6290544 25.3 65.7295569 24.6 66.2798081 23.2L69.781407 25.15 69.781407 25.15ZM73.8332572 10.55C75.1838739 10.55 76.2343536 11.25 76.2343536 12.75 76.2343536 14.25 75.1838739 14.9 73.8332572 14.9 72.5826862 14.9 71.5322065 14.15 71.5322065 12.75 71.5322065 11.35 72.5826862 10.55 73.8332572 10.55ZM75.784148 16.35 75.784148 28.5 71.8823664 28.5 71.8823664 16.35 75.784148 16.35ZM87.5395158 28C86.4390132 28.55 85.1384194 28.8 83.5376884 28.8 81.0865692 28.8 79.3857926 27.65 79.3857926 24.75L79.3857926 19.35 77.6349931 19.35 77.6349931 16.35 79.4358154 16.35 79.4358154 13.8 83.3375971 13.35 83.3375971 16.35 86.9392417 16.35 86.9392417 19.35 83.3375971 19.35 83.3375971 23.85C83.3375971 25.1 83.8378255 25.5 84.7882595 25.5 85.5386021 25.5 86.2389219 25.2 86.9392417 24.7L87.5395158 28 87.5395158 28ZM93.5922796 21.5C94.2425765 23.85 94.392645 25.45 94.392645 25.45L94.4926907 25.45C94.4926907 25.45 94.6427593 23.85 95.343079 21.5L96.8937871 16.35 100.99566 16.35 96.0934217 29.6C94.6927821 33.4 92.9920055 33.95 90.3407949 33.95 89.5904523 33.95 88.740064 33.8 88.0397442 33.65L88.6400183 30.2C89.0902238 30.5 89.6904979 30.65 90.2407492 30.65 91.2912289 30.65 91.9915487 30.25 92.3917314 29.2L87.8896757 16.4 92.1416172 16.4 93.5922796 21.5 93.5922796 21.5Z" />
    <polygon fill="#1D1D1B" fill-rule="nonzero"
      points="106.898 13.05 106.898 25.1 112.701 25.1 112.701 28.5 102.947 28.5 102.947 13" />
    <path fill="#1D1D1B" fill-rule="nonzero"
      d="M124.506396 25.6 118.803792 25.6 117.853358 28.5 113.751485 28.5 119.354043 13.05 124.156236 13.05 129.808817 28.5 125.606898 28.5 124.506396 25.6 124.506396 25.6ZM119.954317 22.3 123.405893 22.3 123.00571 21.1C122.105299 18.5 121.755139 16.6 121.755139 16.6L121.655094 16.6C121.655094 16.6 121.254911 18.55 120.404523 21.1L119.954317 22.3 119.954317 22.3ZM140.863865 20.6C143.164915 20.95 144.265418 22.45 144.265418 24.25 144.265418 26.75 142.564641 28.45 138.762905 28.45L132.009822 28.45 132.009822 13 138.812928 13C141.914344 13 143.615121 14.45 143.615121 16.9 143.615121 18.8 142.564641 20.05 140.863865 20.5L140.863865 20.6 140.863865 20.6ZM137.912517 19.4C138.962997 19.4 139.663317 19 139.663317 17.95 139.663317 16.8 139.01302 16.4 137.812471 16.4L135.961626 16.4 135.961626 19.4C135.961626 19.4 137.912517 19.4 137.912517 19.4ZM135.961626 25.15 138.412746 25.15C139.563271 25.15 140.263591 24.85 140.263591 23.65 140.263591 22.7 139.563271 22.2 138.412746 22.2L135.961626 22.2 135.961626 25.15ZM162.173595 20.6C164.424623 20.95 165.224989 22.35 165.224989 23.85 165.224989 27 162.723847 28.5 158.972133 28.5L152.21905 28.5 154.920283 13.05 161.323207 13.05C164.524669 13.05 165.77524 14.5 165.77524 16.5 165.77524 18.85 164.124486 20.25 162.223618 20.5L162.173595 20.6 162.173595 20.6ZM156.771128 25.15 159.222248 25.15C160.472819 25.15 161.323207 24.65 161.323207 23.45 161.323207 22.65 160.923024 22.2 159.772499 22.2L157.32138 22.2 156.771128 25.15 156.771128 25.15ZM159.672453 19.4C160.722933 19.4 161.673367 19 161.673367 17.7 161.673367 16.75 161.123116 16.35 160.122659 16.35L158.321836 16.35 157.821608 19.35 159.672453 19.35 159.672453 19.4ZM174.879397 24.3 178.63111 25.2C177.93079 27.65 176.230014 28.8 172.82846 28.8 169.426907 28.8 167.325948 26.75 167.325948 23.55 167.325948 18.75 170.52741 16.1 174.029009 16.1 177.530608 16.1 179.181361 18.2 179.181361 20.5 179.181361 21.45 178.98127 22.4 178.681133 23.1L171.527867 23.1C171.22773 24.7 171.878026 25.85 173.17862 25.85 174.029009 25.8 174.629283 25.45 174.879397 24.3L174.879397 24.3ZM175.179534 21.05C175.179534 20.9 175.229557 20.7 175.229557 20.5 175.229557 19.65 174.92942 18.95 173.928963 18.95 172.928506 18.95 172.228186 19.9 171.978072 21.05 171.928049 21.05 175.179534 21.05 175.179534 21.05ZM190.036318 20.75C188.285519 19.85 185.934445 20.1 185.484239 22.65L184.483783 28.5 180.531978 28.5 182.632937 16.35 186.084513 16.35 185.984468 19.7C186.834856 17.2 188.83577 15.65 190.936729 16.2L190.036318 20.75 190.036318 20.75ZM195.438785 24.35C195.338739 24.95 195.388762 25.45 196.189127 25.45 196.439242 25.45 196.689356 25.4 196.989493 25.3L196.339196 28.25C195.688899 28.45 194.938556 28.6 194.288259 28.6 191.887163 28.6 190.936729 27.4 191.336912 25.05L193.838054 10.95 197.789858 10.95 195.438785 24.35 195.438785 24.35ZM203.242348 24.35C203.142302 24.95 203.192325 25.45 203.992691 25.45 204.242805 25.45 204.492919 25.4 204.793056 25.3L204.142759 28.25C203.492462 28.45 202.74212 28.6 202.091823 28.6 199.690726 28.6 198.740292 27.4 199.140475 25.05L200.691183 16.35 204.642988 16.35 203.242348 24.35 203.242348 24.35ZM203.142302 10.55C204.492919 10.55 205.543399 11.25 205.543399 12.75 205.543399 14.25 204.542942 14.9 203.142302 14.9 201.891731 14.9 200.841252 14.15 200.841252 12.75 200.841252 11.35 201.891731 10.55 203.142302 10.55ZM218.449292 24.35C218.349246 24.95 218.399269 25.45 219.199635 25.45 219.449749 25.45 219.699863 25.4 220 25.3L219.349703 28.25C218.699406 28.45 217.949063 28.6 217.298767 28.6 214.89767 28.6 213.947236 27.4 214.347419 25.05L214.997716 21.25C215.197807 20.15 214.997716 19.25 213.747145 19.25 212.796711 19.25 211.996345 20.1 211.696208 22L210.545683 28.45 206.593878 28.45 208.694838 16.3 212.146414 16.3 212.196437 18.75C212.946779 16.95 214.047282 16 216.048196 16 217.949063 16 219.149612 17.25 219.149612 19.1 219.149612 19.5 219.149612 19.8 219.049566 20.1L218.449292 24.35 218.449292 24.35ZM32.5143901 1.7 37.9668799 4.85 37.916857 21.7 24.9109182 29.3 19.2083143 26.05 19.30836 9.35 32.5143901 1.7M32.5143901 0 17.8576976 8.45 17.7076291 26.9 24.9109182 31.05 39.4675651 22.6 39.5175879 4.05 32.5143901 0 32.5143901 0 32.5143901 0Z" />
    <polygon fill="#1D1D1B" fill-rule="nonzero"
      points="15.857 3.735 16.23 3.95 18.581 5.3 17.834 6.6 15.857 5.465 1.896 13.485 1.753 31.064 7.623 34.398 6.883 35.702 .63 32.152 .246 31.935 .25 31.494 .4 13.044 .404 12.614 .776 12.4 15.483 3.95" />
    <polygon fill="#1D1D1B" fill-rule="nonzero"
      points="15.33 17.201 16.083 18.499 10.251 21.883 10.107 39.465 16.553 43.135 30.413 35.117 30.414 29.85 31.914 29.85 31.914 35.983 31.539 36.199 16.933 44.649 16.56 44.865 16.186 44.652 8.983 40.552 8.6 40.334 8.604 39.894 8.754 21.444 8.757 21.016 9.127 20.801" />
  </g>
</svg>